# xmcd
#
# Track frame offsets:
#	150
#	18354
#	35455
#	54748
#	72600
#	89234
#	104110
#	121700
#	141423
#	162465
#	184889
#	204014
#	223110
#	242526
#	260327
#	292284
#
# Disc length: 4510 seconds
#
# Revision: 0
# Processed by: cddbd v1.5.2PL0 Copyright (c) Steve Scherf et al.
# Submitted via: audiograbber 1.83.01
#
DISCID=01119c10
DTITLE=faith hill and tim mcgraw - ask-1545 faith hill and tim mcgraw greatest hits
DYEAR=2005
DGENRE=karaoke cd+g
TTITLE0=faith hill - Breathe
TTITLE1=faith hill - Cry
TTITLE2=faith hill - Like we never loved at all
TTITLE3=faith hill - mississippi
TTITLE4=faith hill - There you'll be
TTITLE5=faith hill - This kiss
TTITLE6=faith hill and tim mcgraw - it's your love
TTITLE7=faith hill and tim mcgraw - let's make love
TTITLE8=tim mcgraw - back when
TTITLE9=tim mcgraw - live like you were dying
TTITLE10=tim mcgraw - real good man
TTITLE11=tim mcgraw - red ragtop
TTITLE12=tim mcgraw - she's my kind of rain
TTITLE13=tim mcgraw - unbroken
TTITLE14=tim mcgraw - watch the wind blow by
TTITLE15=data only - Data Track
EXTD=
EXTT0=
EXTT1=
EXTT2=
EXTT3=
EXTT4=
EXTT5=
EXTT6=
EXTT7=
EXTT8=
EXTT9=
EXTT10=
EXTT11=
EXTT12=
EXTT13=
EXTT14=
EXTT15=
PLAYORDER=
